y_start=2.980000, y_end=2.980000, diff=0.0000000000
<svg width="85" height="4" viewBox="0 0 85 4" fill="none" xmlns="http://www.w3.org/2000/svg">
<path d="M0.00 2.98000L0.50 3.29710L1.00 3.47199L1.50 3.48551L2.00 3.33617L2.50 3.04034L3.00 2.63045L3.50 2.15145L4.00 1.65584L4.50 1.19797L5.00 0.82802L5.50 0.58656L6.00 0.50006L6.50 0.57800L7.00 0.81184L7.50 1.17594L8.00 1.63038L8.50 2.12534L9.00 2.60657L9.50 3.02129L10.00 3.32405L10.50 3.48165L11.00 3.47681L11.50 3.31007L12.00 2.99970L12.50 2.57973L13.00 2.09620L13.50 1.60213L14.00 1.15168L14.50 0.79423L15.00 0.56897L15.50 0.50060L16.00 0.59661L16.50 0.84648L17.00 1.22281L17.50 1.68435L18.00 2.18049L18.50 2.65685L19.00 3.06119L19.50 3.34919L20.00 3.48928L20.50 3.46610L21.00 3.28218L21.50 2.95769L22.00 2.52821L22.50 2.04082L23.00 1.54896L23.50 1.10654L24.00 0.76208L24.50 0.55333L25.00 0.50319L25.50 0.61714L26.00 0.88270L26.50 1.27075L27.00 1.73875L27.50 2.23539L28.00 2.70623L28.50 3.09964L29.00 3.37249L29.50 3.49488L30.00 3.45338L30.50 3.25254L31.00 2.91438L31.50 2.47597L32.00 1.98539L32.50 1.49641L33.00 1.06263L33.50 0.73162L34.00 0.53967L34.50 0.50782L35.00 0.63956L35.50 0.92044L36.00 1.31968L36.50 1.79351L37.00 2.28997L37.50 2.75465L38.00 3.13659L38.50 3.39392L39.00 3.49843L39.50 3.43867L40.00 3.22118L40.50 2.86982L41.00 2.42309L41.50 1.92997L42.00 1.44454L42.50 1.02000L43.00 0.70290L43.50 0.52801L44.00 0.51449L44.50 0.66383L45.00 0.95966L45.50 1.36955L46.00 1.84855L46.50 2.34416L47.00 2.80203L47.50 3.17198L48.00 3.41344L48.50 3.49994L49.00 3.42200L49.50 3.18816L50.00 2.82406L50.50 2.36962L51.00 1.87466L51.50 1.39343L52.00 0.97871L52.50 0.67595L53.00 0.51835L53.50 0.52319L54.00 0.68993L54.50 1.00030L55.00 1.42027L55.50 1.90380L56.00 2.39787L56.50 2.84832L57.00 3.20577L57.50 3.43103L58.00 3.49940L58.50 3.40339L59.00 3.15352L59.50 2.77719L60.00 2.31565L60.50 1.81951L61.00 1.34315L61.50 0.93881L62.00 0.65081L62.50 0.51072L63.00 0.53390L63.50 0.71782L64.00 1.04231L64.50 1.47179L65.00 1.95918L65.50 2.45104L66.00 2.89346L66.50 3.23792L67.00 3.44667L67.50 3.49681L68.00 3.38286L68.50 3.11730L69.00 2.72925L69.50 2.26125L70.00 1.76461L70.50 1.29377L71.00 0.90036L71.50 0.62751L72.00 0.50512L72.50 0.54662L73.00 0.74746L73.50 1.08562L74.00 1.52403L74.50 2.01461L75.00 2.50359L75.50 2.93737L76.00 3.26838L76.50 3.46033L77.00 3.49218L77.50 3.36044L78.00 3.07956L78.50 2.68032L79.00 2.20649L79.50 1.71003L80.00 1.24535L80.50 0.86341L81.00 0.60608L81.50 0.50157L82.00 0.56133L82.50 0.77882L83.00 1.13018L83.50 1.57691L84.00 2.07003L84.50 2.55546L85.00 2.98000" stroke="#0057F9" stroke-miterlimit="10" stroke-linecap="round" stroke-linejoin="round"/>
</svg>
