<svg width="16" height="16" viewBox="0 0 16 16" fill="none" xmlns="http://www.w3.org/2000/svg">
<g clip-path="url(#clip0_88_1818)">
<path d="M4.66602 6.44475C4.66602 5.97319 4.85334 5.52095 5.18678 5.18751C5.52022 4.85407 5.97246 4.66675 6.44402 4.66675H12.2213C12.4548 4.66675 12.686 4.71274 12.9018 4.80209C13.1175 4.89144 13.3135 5.02241 13.4786 5.18751C13.6437 5.35261 13.7747 5.54862 13.864 5.76434C13.9534 5.98005 13.9993 6.21126 13.9993 6.44475V12.2221C13.9993 12.4556 13.9534 12.6868 13.864 12.9025C13.7747 13.1182 13.6437 13.3142 13.4786 13.4793C13.3135 13.6444 13.1175 13.7754 12.9018 13.8647C12.686 13.9541 12.4548 14.0001 12.2213 14.0001H6.44402C6.21053 14.0001 5.97932 13.9541 5.7636 13.8647C5.54789 13.7754 5.35188 13.6444 5.18678 13.4793C5.02168 13.3142 4.89071 13.1182 4.80136 12.9025C4.71201 12.6868 4.66602 12.4556 4.66602 12.2221V6.44475Z" stroke="#346BED" stroke-linecap="round" stroke-linejoin="round"/>
<path d="M2.67467 11.158C2.47023 11.0415 2.30018 10.873 2.18172 10.6697C2.06325 10.4663 2.00057 10.2353 2 10V3.33333C2 2.6 2.6 2 3.33333 2H10C10.5 2 10.772 2.25667 11 2.66667" stroke="#346BED" stroke-linecap="round" stroke-linejoin="round"/>
</g>
<defs>
<clipPath id="clip0_88_1818">
<rect width="16" height="16" fill="white"/>
</clipPath>
</defs>
</svg>
