<svg width="16" height="16" viewBox="0 0 16 16" fill="none" xmlns="http://www.w3.org/2000/svg">
<g clip-path="url(#clip0_88_1750)">
<path d="M9.33203 2V4.66667C9.33203 4.84348 9.40227 5.01305 9.52729 5.13807C9.65232 5.2631 9.82189 5.33333 9.9987 5.33333H12.6654" stroke="#0057F9" stroke-width="1.25" stroke-linecap="round" stroke-linejoin="round"/>
<path d="M11.332 14H4.66536C4.31174 14 3.9726 13.8595 3.72256 13.6095C3.47251 13.3594 3.33203 13.0203 3.33203 12.6667V3.33333C3.33203 2.97971 3.47251 2.64057 3.72256 2.39052C3.9726 2.14048 4.31174 2 4.66536 2H9.33203L12.6654 5.33333V12.6667C12.6654 13.0203 12.5249 13.3594 12.2748 13.6095C12.0248 13.8595 11.6857 14 11.332 14Z" stroke="#0057F9" stroke-width="1.25" stroke-linecap="round" stroke-linejoin="round"/>
<path d="M7.33203 8.3335C7.33203 8.06828 7.22667 7.81393 7.03914 7.62639C6.8516 7.43885 6.59725 7.3335 6.33203 7.3335C6.06681 7.3335 5.81246 7.43885 5.62492 7.62639C5.43739 7.81393 5.33203 8.06828 5.33203 8.3335V10.3335C5.33203 10.5987 5.43739 10.8531 5.62492 11.0406C5.81246 11.2281 6.06681 11.3335 6.33203 11.3335C6.59725 11.3335 6.8516 11.2281 7.03914 11.0406C7.22667 10.8531 7.33203 10.5987 7.33203 10.3335" stroke="#0057F9" stroke-width="1.25" stroke-linecap="round" stroke-linejoin="round"/>
<path d="M8.66797 7.3335L9.66797 11.3335L10.668 7.3335" stroke="#0057F9" stroke-width="1.25" stroke-linecap="round" stroke-linejoin="round"/>
</g>
<defs>
<clipPath id="clip0_88_1750">
<rect width="16" height="16" fill="white"/>
</clipPath>
</defs>
</svg>
