<svg width="16" height="16" viewBox="0 0 16 16" fill="none" xmlns="http://www.w3.org/2000/svg">
<g clip-path="url(#clip0_88_1739)">
<path d="M5.33203 7.3335V10.6668" stroke="#0057F9" stroke-width="1.25" stroke-linecap="round" stroke-linejoin="round"/>
<path d="M5.33203 5.3335V5.341" stroke="#0057F9" stroke-width="1.25" stroke-linecap="round" stroke-linejoin="round"/>
<path d="M8 10.6667V7.33333" stroke="#0057F9" stroke-width="1.25" stroke-linecap="round" stroke-linejoin="round"/>
<path d="M10.6667 10.6667V8.66667C10.6667 8.31304 10.5262 7.97391 10.2761 7.72386C10.0261 7.47381 9.68696 7.33333 9.33333 7.33333C8.97971 7.33333 8.64057 7.47381 8.39052 7.72386C8.14048 7.97391 8 8.31304 8 8.66667" stroke="#0057F9" stroke-width="1.25" stroke-linecap="round" stroke-linejoin="round"/>
<path d="M2 4.66667C2 3.95942 2.28095 3.28115 2.78105 2.78105C3.28115 2.28095 3.95942 2 4.66667 2H11.3333C12.0406 2 12.7189 2.28095 13.219 2.78105C13.719 3.28115 14 3.95942 14 4.66667V11.3333C14 12.0406 13.719 12.7189 13.219 13.219C12.7189 13.719 12.0406 14 11.3333 14H4.66667C3.95942 14 3.28115 13.719 2.78105 13.219C2.28095 12.7189 2 12.0406 2 11.3333V4.66667Z" stroke="#0057F9" stroke-width="1.25" stroke-linecap="round" stroke-linejoin="round"/>
</g>
<defs>
<clipPath id="clip0_88_1739">
<rect width="16" height="16" fill="white"/>
</clipPath>
</defs>
</svg>
